<?xml version="1.0" encoding="UTF-8" standalone="no"?>
<!DOCTYPE svg PUBLIC "-//W3C//DTD SVG 1.1//EN"
 "http://www.w3.org/Graphics/SVG/1.1/DTD/svg11.dtd">
<!-- Generated by graphviz version 2.44.1 (20200629.0846)
 -->
<!-- Title: FreeBSDCI Pages: 1 -->
<svg width="1646pt" height="703pt"
 viewBox="0.00 0.00 1646.00 703.00" xmlns="http://www.w3.org/2000/svg" xmlns:xlink="http://www.w3.org/1999/xlink">
<g id="graph0" class="graph" transform="scale(1 1) rotate(0) translate(4 699)">
<title>FreeBSDCI</title>
<polygon fill="white" stroke="transparent" points="-4,4 -4,-699 1642,-699 1642,4 -4,4"/>
<g id="clust4" class="cluster">
<title>cluster_tests</title>
<g id="a_clust4"><a xlink:href="https://github.com/freebsd/freebsd-ci/blob/master/scripts/test/run-tests.sh" xlink:title="run&#45;tests.sh">
<polygon fill="none" stroke="black" points="212,-65 212,-302 420,-302 420,-65 212,-65"/>
<text text-anchor="middle" x="316" y="-290" font-family="Verdana" font-size="10.00">run&#45;tests.sh</text>
</a>
</g>
</g>
<g id="clust5" class="cluster">
<title>cluster_regtests</title>
<g id="a_clust5"><a xlink:href="https://github.com/freebsd/freebsd-ci/tree/master/scripts/test/subr" xlink:title="test/subr (regression tests scripts)">
<polygon fill="none" stroke="black" points="828,-335 828,-687 1630,-687 1630,-335 828,-335"/>
<text text-anchor="middle" x="1229" y="-675" font-family="Verdana" font-size="10.00">test/subr (regression tests scripts)</text>
</a>
</g>
</g>
<g id="clust1" class="cluster">
<title>cluster_jobs</title>
<g id="a_clust1"><a xlink:href="https://ci.freebsd.org/" xlink:title="Jenkins jobs">
<polygon fill="none" stroke="black" points="8,-136 8,-687 204,-687 204,-136 8,-136"/>
<text text-anchor="middle" x="106" y="-675" font-family="Verdana" font-size="10.00">Jenkins jobs</text>
</a>
</g>
</g>
<g id="clust2" class="cluster">
<title>cluster_amd64test</title>
<g id="a_clust2"><a xlink:href="https://ci.freebsd.org/">
<polygon fill="none" stroke="black" points="16,-144 16,-474 194,-474 194,-144 16,-144"/>
</a>
</g>
</g>
<g id="clust3" class="cluster">
<title>cluster_build</title>
<g id="a_clust3"><a xlink:href="https://github.com/freebsd/freebsd-ci/blob/master/scripts/build" xlink:title="build scripts">
<polygon fill="none" stroke="black" points="224,-335 224,-597 552,-597 552,-335 224,-335"/>
<text text-anchor="middle" x="388" y="-585" font-family="Verdana" font-size="10.00">build scripts</text>
</a>
</g>
</g>
<g id="clust6" class="cluster">
<title>cluster_infra</title>
<polygon fill="none" stroke="black" points="560,-422 560,-493 755,-493 755,-422 560,-422"/>
<text text-anchor="middle" x="657.5" y="-481" font-family="Verdana" font-size="10.00">Infrastructure</text>
</g>
<!-- Artifact -->
<g id="node1" class="node">
<title>Artifact</title>
<g id="a_node1"><a xlink:href="https://artifact.ci.freebsd.org/" xlink:title="Artifact">
<path fill="none" stroke="black" d="M746.5,-462.73C746.5,-464.53 733.28,-466 717,-466 700.72,-466 687.5,-464.53 687.5,-462.73 687.5,-462.73 687.5,-433.27 687.5,-433.27 687.5,-431.47 700.72,-430 717,-430 733.28,-430 746.5,-431.47 746.5,-433.27 746.5,-433.27 746.5,-462.73 746.5,-462.73"/>
<path fill="none" stroke="black" d="M746.5,-462.73C746.5,-460.92 733.28,-459.45 717,-459.45 700.72,-459.45 687.5,-460.92 687.5,-462.73"/>
<text text-anchor="middle" x="717" y="-444.3" font-family="Times,serif" font-size="14.00">Artifact</text>
</a>
</g>
</g>
<!-- build&#45;test_image&#45;head.sh -->
<g id="node8" class="node">
<title>build&#45;test_image&#45;head.sh</title>
<g id="a_node8"><a xlink:href="https://github.com/freebsd/freebsd-ci/blob/master/scripts/build/build-test_image-head.sh" xlink:title="build&#45;test_image&#45;head.sh">
<polygon fill="none" stroke="black" points="527.51,-379 294.45,-379 234.49,-343 467.55,-343 527.51,-379"/>
<text text-anchor="middle" x="381" y="-357.3" font-family="Times,serif" font-size="14.00">build&#45;test_image&#45;head.sh</text>
</a>
</g>
</g>
<!-- Artifact&#45;&gt;build&#45;test_image&#45;head.sh -->
<g id="edge11" class="edge">
<title>Artifact&#45;&gt;build&#45;test_image&#45;head.sh</title>
<path fill="none" stroke="blue" d="M695.91,-430.38C690.65,-427.04 684.84,-423.95 679,-422 613.12,-399.95 588.93,-433.92 523,-412 511.42,-408.15 511.08,-402.11 500,-397 487.73,-391.34 474.32,-386.35 461.07,-382.05"/>
<polygon fill="blue" stroke="blue" points="462.06,-378.69 451.47,-379.03 459.96,-385.37 462.06,-378.69"/>
<text text-anchor="middle" x="580.5" y="-400.8" font-family="Times,serif" font-size="14.00" fill="blue">base and kernel pkgs</text>
</g>
<!-- create&#45;meta.sh -->
<g id="node9" class="node">
<title>create&#45;meta.sh</title>
<g id="a_node9"><a xlink:href="https://github.com/freebsd/freebsd-ci/blob/master/scripts/test/create-meta.sh" xlink:title="create&#45;meta.sh">
<polygon fill="none" stroke="black" points="402.46,-275 256.97,-275 219.54,-239 365.03,-239 402.46,-275"/>
<text text-anchor="middle" x="311" y="-253.3" font-family="Times,serif" font-size="14.00">create&#45;meta.sh</text>
</a>
</g>
</g>
<!-- Artifact&#45;&gt;create&#45;meta.sh -->
<g id="edge10" class="edge">
<title>Artifact&#45;&gt;create&#45;meta.sh</title>
<path fill="none" stroke="red" d="M726.33,-429.82C740.45,-401.18 762.66,-343.54 733,-310 713.1,-287.49 547.85,-272.58 430.16,-264.71"/>
<polygon fill="red" stroke="red" points="430.21,-261.2 420,-264.04 429.74,-268.19 430.21,-261.2"/>
<text text-anchor="middle" x="783" y="-357.3" font-family="Times,serif" font-size="14.00" fill="red">disk&#45;test.img</text>
</g>
<!-- Pkgs repository -->
<g id="node2" class="node">
<title>Pkgs repository</title>
<g id="a_node2"><a xlink:href="http://pkg.freebsd.org/" xlink:title="Pkgs repository">
<path fill="none" stroke="black" d="M669.5,-462.73C669.5,-464.53 646.87,-466 619,-466 591.13,-466 568.5,-464.53 568.5,-462.73 568.5,-462.73 568.5,-433.27 568.5,-433.27 568.5,-431.47 591.13,-430 619,-430 646.87,-430 669.5,-431.47 669.5,-433.27 669.5,-433.27 669.5,-462.73 669.5,-462.73"/>
<path fill="none" stroke="black" d="M669.5,-462.73C669.5,-460.92 646.87,-459.45 619,-459.45 591.13,-459.45 568.5,-460.92 568.5,-462.73"/>
<text text-anchor="middle" x="619" y="-444.3" font-family="Times,serif" font-size="14.00">Pkgs repository</text>
</a>
</g>
</g>
<!-- Pkgs repository&#45;&gt;build&#45;test_image&#45;head.sh -->
<g id="edge14" class="edge">
<title>Pkgs repository&#45;&gt;build&#45;test_image&#45;head.sh</title>
<path fill="none" stroke="green" d="M582.98,-430.41C574.31,-427.06 564.96,-423.97 556,-422 536.22,-417.65 387.92,-426.71 374,-412 368.26,-405.94 367.76,-397.46 369.4,-389.21"/>
<polygon fill="green" stroke="green" points="372.81,-390.01 372.24,-379.43 366.09,-388.05 372.81,-390.01"/>
<text text-anchor="middle" x="437" y="-400.8" font-family="Times,serif" font-size="14.00" fill="green">packages used for tests</text>
</g>
<!-- FreeBSD&#45;head&#45;amd64&#45;build -->
<g id="node3" class="node">
<title>FreeBSD&#45;head&#45;amd64&#45;build</title>
<g id="a_node3"><a xlink:href="https://github.com/freebsd/freebsd-ci/tree/master/jobs/FreeBSD-head-amd64-build" xlink:title="FreeBSD&#45;head&#45;amd64&#45;build">
<polygon fill="none" stroke="black" points="193.5,-660 34.5,-660 34.5,-664 22.5,-664 22.5,-624 193.5,-624 193.5,-660"/>
<polyline fill="none" stroke="black" points="22.5,-660 34.5,-660 "/>
<text text-anchor="middle" x="108" y="-638.3" font-family="Times,serif" font-size="14.00">FreeBSD&#45;head&#45;amd64&#45;build</text>
</a>
</g>
</g>
<!-- FreeBSD&#45;head&#45;amd64&#45;testvm -->
<g id="node4" class="node">
<title>FreeBSD&#45;head&#45;amd64&#45;testvm</title>
<g id="a_node4"><a xlink:href="https://github.com/freebsd/freebsd-ci/tree/master/jobs/FreeBSD-head-amd64-testvm" xlink:title="FreeBSD&#45;head&#45;amd64&#45;testvm">
<polygon fill="none" stroke="black" points="196,-570 28,-570 28,-574 16,-574 16,-534 196,-534 196,-570"/>
<polyline fill="none" stroke="black" points="16,-570 28,-570 "/>
<text text-anchor="middle" x="106" y="-548.3" font-family="Times,serif" font-size="14.00">FreeBSD&#45;head&#45;amd64&#45;testvm</text>
</a>
</g>
</g>
<!-- FreeBSD&#45;head&#45;amd64&#45;build&#45;&gt;FreeBSD&#45;head&#45;amd64&#45;testvm -->
<g id="edge5" class="edge">
<title>FreeBSD&#45;head&#45;amd64&#45;build&#45;&gt;FreeBSD&#45;head&#45;amd64&#45;testvm</title>
<path fill="none" stroke="black" d="M107.6,-623.61C107.32,-611.24 106.94,-594.37 106.62,-580.22"/>
<polygon fill="black" stroke="black" points="110.11,-579.97 106.39,-570.05 103.12,-580.13 110.11,-579.97"/>
</g>
<!-- build&#45;world&#45;kernel&#45;head.sh -->
<g id="node7" class="node">
<title>build&#45;world&#45;kernel&#45;head.sh</title>
<g id="a_node7"><a xlink:href="https://github.com/freebsd/freebsd-ci/blob/master/scripts/build/build-world-kernel-head.sh" xlink:title="build&#45;world&#45;kernel&#45;head.sh">
<polygon fill="none" stroke="black" points="544.06,-570 295.8,-570 231.94,-534 480.2,-534 544.06,-570"/>
<text text-anchor="middle" x="388" y="-548.3" font-family="Times,serif" font-size="14.00">build&#45;world&#45;kernel&#45;head.sh</text>
</a>
</g>
</g>
<!-- FreeBSD&#45;head&#45;amd64&#45;build&#45;&gt;build&#45;world&#45;kernel&#45;head.sh -->
<g id="edge1" class="edge">
<title>FreeBSD&#45;head&#45;amd64&#45;build&#45;&gt;build&#45;world&#45;kernel&#45;head.sh</title>
<path fill="none" stroke="black" d="M162.32,-623.93C208.59,-609.39 275.15,-588.47 324,-573.11"/>
<polygon fill="black" stroke="black" points="325.34,-576.36 333.83,-570.02 323.24,-569.68 325.34,-576.36"/>
</g>
<!-- FreeBSD&#45;head&#45;amd64&#45;test -->
<g id="node5" class="node">
<title>FreeBSD&#45;head&#45;amd64&#45;test</title>
<g id="a_node5"><a xlink:href="https://github.com/freebsd/freebsd-ci/tree/master/jobs/FreeBSD-head-amd64-test" xlink:title="FreeBSD&#45;head&#45;amd64&#45;test">
<polygon fill="none" stroke="black" points="186,-466 36,-466 36,-470 24,-470 24,-430 186,-430 186,-466"/>
<polyline fill="none" stroke="black" points="24,-466 36,-466 "/>
<text text-anchor="middle" x="105" y="-444.3" font-family="Times,serif" font-size="14.00">FreeBSD&#45;head&#45;amd64&#45;test</text>
</a>
</g>
</g>
<!-- FreeBSD&#45;head&#45;amd64&#45;testvm&#45;&gt;FreeBSD&#45;head&#45;amd64&#45;test -->
<g id="edge6" class="edge">
<title>FreeBSD&#45;head&#45;amd64&#45;testvm&#45;&gt;FreeBSD&#45;head&#45;amd64&#45;test</title>
<path fill="none" stroke="black" d="M105.83,-533.7C105.68,-517.92 105.44,-494.36 105.27,-476.09"/>
<polygon fill="black" stroke="black" points="108.77,-476.01 105.17,-466.05 101.77,-476.08 108.77,-476.01"/>
</g>
<!-- FreeBSD&#45;head&#45;amd64&#45;testvm&#45;&gt;build&#45;test_image&#45;head.sh -->
<g id="edge4" class="edge">
<title>FreeBSD&#45;head&#45;amd64&#45;testvm&#45;&gt;build&#45;test_image&#45;head.sh</title>
<path fill="none" stroke="black" d="M136.37,-533.82C154.78,-522.94 178.41,-508.11 198,-493 234.6,-464.77 236.68,-449.28 274,-422 293.44,-407.79 316.59,-394.42 336.37,-383.93"/>
<polygon fill="black" stroke="black" points="338.25,-386.9 345.49,-379.17 335.01,-380.69 338.25,-386.9"/>
</g>
<!-- meta/run.sh -->
<g id="node6" class="node">
<title>meta/run.sh</title>
<g id="a_node6"><a xlink:href="https://github.com/freebsd/freebsd-ci/blob/master/jobs/FreeBSD-head-amd64-test/meta/run.sh" xlink:title="meta/run.sh">
<polygon fill="none" stroke="black" points="178.38,-379 55.29,-379 23.62,-343 146.71,-343 178.38,-379"/>
<text text-anchor="middle" x="101" y="-357.3" font-family="Times,serif" font-size="14.00">meta/run.sh</text>
</a>
</g>
</g>
<!-- FreeBSD&#45;head&#45;amd64&#45;test&#45;&gt;meta/run.sh -->
<g id="edge3" class="edge">
<title>FreeBSD&#45;head&#45;amd64&#45;test&#45;&gt;meta/run.sh</title>
<path fill="none" stroke="black" d="M104.19,-429.8C103.64,-418.16 102.91,-402.55 102.28,-389.24"/>
<polygon fill="black" stroke="black" points="105.77,-389 101.81,-379.18 98.78,-389.33 105.77,-389"/>
</g>
<!-- FreeBSD&#45;head&#45;amd64&#45;test&#45;&gt;create&#45;meta.sh -->
<g id="edge2" class="edge">
<title>FreeBSD&#45;head&#45;amd64&#45;test&#45;&gt;create&#45;meta.sh</title>
<path fill="none" stroke="black" d="M128.53,-429.87C145.64,-416.86 168.89,-398.02 187,-379 203.86,-361.3 203.23,-352.79 220,-335 228.43,-326.06 237.85,-317.12 247.34,-308.66"/>
<polygon fill="black" stroke="black" points="249.74,-311.22 254.95,-302 245.13,-305.95 249.74,-311.22"/>
</g>
<!-- meta/run.sh&#45;&gt;create&#45;meta.sh -->
<g id="edge8" class="edge">
<title>meta/run.sh&#45;&gt;create&#45;meta.sh</title>
<path fill="none" stroke="blue" d="M136.15,-342.93C172.04,-325.5 227.85,-298.39 266.73,-279.5"/>
<polygon fill="blue" stroke="blue" points="268.27,-282.65 275.74,-275.13 265.21,-276.35 268.27,-282.65"/>
<text text-anchor="middle" x="265" y="-313.8" font-family="Times,serif" font-size="14.00" fill="blue">list of test scripts to run</text>
</g>
<!-- build&#45;world&#45;kernel&#45;head.sh&#45;&gt;Artifact -->
<g id="edge7" class="edge">
<title>build&#45;world&#45;kernel&#45;head.sh&#45;&gt;Artifact</title>
<path fill="none" stroke="blue" d="M501.2,-545.72C557.75,-538.93 625.37,-524.25 679,-493 687.02,-488.33 694.19,-481.33 700.07,-474.28"/>
<polygon fill="blue" stroke="blue" points="703.03,-476.18 706.37,-466.12 697.49,-471.9 703.03,-476.18"/>
<text text-anchor="middle" x="714.5" y="-504.8" font-family="Times,serif" font-size="14.00" fill="blue">base and kernel pkgs</text>
</g>
<!-- build&#45;test_image&#45;head.sh&#45;&gt;Artifact -->
<g id="edge13" class="edge">
<title>build&#45;test_image&#45;head.sh&#45;&gt;Artifact</title>
<path fill="none" stroke="red" d="M509.87,-368.32C551.71,-373.3 597.7,-381.99 638,-397 649.44,-401.26 650.55,-405.7 661,-412 668.84,-416.72 671.17,-417.26 679,-422 680.67,-423.01 682.38,-424.06 684.09,-425.13"/>
<polygon fill="red" stroke="red" points="682.33,-428.16 692.64,-430.59 686.09,-422.26 682.33,-428.16"/>
<text text-anchor="middle" x="697" y="-400.8" font-family="Times,serif" font-size="14.00" fill="red">disk&#45;test.img</text>
</g>
<!-- bhyve or qemu -->
<g id="node18" class="node">
<title>bhyve or qemu</title>
<polygon fill="none" stroke="black" points="387.57,-175.56 308,-188 228.43,-175.56 228.51,-155.44 387.49,-155.44 387.57,-175.56"/>
<text text-anchor="middle" x="308" y="-166.3" font-family="Times,serif" font-size="14.00">bhyve or qemu</text>
</g>
<!-- create&#45;meta.sh&#45;&gt;bhyve or qemu -->
<g id="edge15" class="edge">
<title>create&#45;meta.sh&#45;&gt;bhyve or qemu</title>
<path fill="none" stroke="peru" d="M310.39,-238.8C309.98,-227.16 309.43,-211.55 308.96,-198.24"/>
<polygon fill="peru" stroke="peru" points="312.46,-198.05 308.61,-188.18 305.46,-198.29 312.46,-198.05"/>
<text text-anchor="middle" x="382" y="-209.8" font-family="Times,serif" font-size="14.00" fill="peru">disk&#45;test.img and meta.tar</text>
</g>
<!-- config&#45;head/testvm/* -->
<g id="node10" class="node">
<title>config&#45;head/testvm/*</title>
<g id="a_node10"><a xlink:href="https://github.com/freebsd/freebsd-ci/tree/master/scripts/build/config-head/testvm" xlink:title="config&#45;head/testvm/*">
<path fill="none" stroke="black" d="M414.5,-462.73C414.5,-464.53 385.14,-466 349,-466 312.86,-466 283.5,-464.53 283.5,-462.73 283.5,-462.73 283.5,-433.27 283.5,-433.27 283.5,-431.47 312.86,-430 349,-430 385.14,-430 414.5,-431.47 414.5,-433.27 414.5,-433.27 414.5,-462.73 414.5,-462.73"/>
<path fill="none" stroke="black" d="M414.5,-462.73C414.5,-460.92 385.14,-459.45 349,-459.45 312.86,-459.45 283.5,-460.92 283.5,-462.73"/>
<text text-anchor="middle" x="349" y="-444.3" font-family="Times,serif" font-size="14.00">config&#45;head/testvm/*</text>
</a>
</g>
</g>
<!-- config&#45;head/testvm/*&#45;&gt;build&#45;test_image&#45;head.sh -->
<g id="edge12" class="edge">
<title>config&#45;head/testvm/*&#45;&gt;build&#45;test_image&#45;head.sh</title>
<path fill="none" stroke="brown" d="M348.41,-429.78C348.62,-419.88 349.87,-407.38 354,-397 355.29,-393.76 356.96,-390.58 358.86,-387.52"/>
<polygon fill="brown" stroke="brown" points="361.72,-389.52 364.6,-379.33 355.99,-385.51 361.72,-389.52"/>
</g>
<!-- extract&#45;meta.sh -->
<g id="node11" class="node">
<title>extract&#45;meta.sh</title>
<g id="a_node11"><a xlink:href="https://github.com/freebsd/freebsd-ci/blob/master/scripts/test/extract-meta.sh" xlink:title="extract&#45;meta.sh">
<polygon fill="none" stroke="black" points="412.49,-109 258.99,-109 219.51,-73 373.01,-73 412.49,-109"/>
<text text-anchor="middle" x="316" y="-87.3" font-family="Times,serif" font-size="14.00">extract&#45;meta.sh</text>
</a>
</g>
</g>
<!-- test reports -->
<g id="node12" class="node">
<title>test reports</title>
<g id="a_node12"><a xlink:href="https://ci.freebsd.org/job/FreeBSD-head-amd64-test/lastCompletedBuild/testReport/" xlink:title="test reports">
<polygon fill="none" stroke="black" points="348.5,-36 277.5,-36 277.5,0 354.5,0 354.5,-30 348.5,-36"/>
<polyline fill="none" stroke="black" points="348.5,-36 348.5,-30 "/>
<polyline fill="none" stroke="black" points="354.5,-30 348.5,-30 "/>
<text text-anchor="middle" x="316" y="-14.3" font-family="Times,serif" font-size="14.00">test reports</text>
</a>
</g>
</g>
<!-- extract&#45;meta.sh&#45;&gt;test reports -->
<g id="edge17" class="edge">
<title>extract&#45;meta.sh&#45;&gt;test reports</title>
<path fill="none" stroke="black" d="M316,-65C316,-58.88 316,-52.29 316,-46.07"/>
<polygon fill="black" stroke="black" points="319.5,-46.03 316,-36.03 312.5,-46.03 319.5,-46.03"/>
</g>
<!-- disable&#45;dtrace&#45;tests.sh -->
<g id="node13" class="node">
<title>disable&#45;dtrace&#45;tests.sh</title>
<g id="a_node13"><a xlink:href="https://github.com/freebsd/freebsd-ci/blob/master/scripts/test/subr/disable-dtrace-tests.sh" xlink:title="disable&#45;dtrace&#45;tests.sh">
<polygon fill="none" stroke="black" points="1621.61,-660 1413.84,-660 1360.39,-624 1568.16,-624 1621.61,-660"/>
<text text-anchor="middle" x="1491" y="-638.3" font-family="Times,serif" font-size="14.00">disable&#45;dtrace&#45;tests.sh</text>
</a>
</g>
</g>
<!-- disable&#45;zfs&#45;tests.sh -->
<g id="node14" class="node">
<title>disable&#45;zfs&#45;tests.sh</title>
<g id="a_node14"><a xlink:href="https://github.com/freebsd/freebsd-ci/blob/master/scripts/test/subr/disable-zfs-tests.sh" xlink:title="disable&#45;zfs&#45;tests.sh">
<polygon fill="none" stroke="black" points="1342.3,-660 1162.07,-660 1115.7,-624 1295.93,-624 1342.3,-660"/>
<text text-anchor="middle" x="1229" y="-638.3" font-family="Times,serif" font-size="14.00">disable&#45;zfs&#45;tests.sh</text>
</a>
</g>
</g>
<!-- disable&#45;notyet&#45;tests.sh -->
<g id="node15" class="node">
<title>disable&#45;notyet&#45;tests.sh</title>
<g id="a_node15"><a xlink:href="https://github.com/freebsd/freebsd-ci/blob/master/scripts/test/subr/disable-notyet-tests.sh" xlink:title="disable&#45;notyet&#45;tests.sh">
<polygon fill="none" stroke="black" points="1097.61,-660 889.84,-660 836.39,-624 1044.16,-624 1097.61,-660"/>
<text text-anchor="middle" x="967" y="-638.3" font-family="Times,serif" font-size="14.00">disable&#45;notyet&#45;tests.sh</text>
</a>
</g>
</g>
<!-- run&#45;kyua.sh -->
<g id="node16" class="node">
<title>run&#45;kyua.sh</title>
<g id="a_node16"><a xlink:href="https://github.com/freebsd/freebsd-ci/blob/master/scripts/test/subr/run-kyua.sh" xlink:title="run&#45;kyua.sh">
<polygon fill="none" stroke="black" points="991.38,-379 868.29,-379 836.62,-343 959.71,-343 991.38,-379"/>
<text text-anchor="middle" x="914" y="-357.3" font-family="Times,serif" font-size="14.00">run&#45;kyua.sh</text>
</a>
</g>
</g>
<!-- run&#45;kyua.sh&#45;&gt;create&#45;meta.sh -->
<g id="edge18" class="edge">
<title>run&#45;kyua.sh&#45;&gt;create&#45;meta.sh</title>
<path fill="none" stroke="black" d="M879.33,-335C864.52,-325.58 846.61,-315.76 829,-310 751.37,-284.63 525.17,-269.16 398.87,-262.26"/>
<polygon fill="black" stroke="black" points="399.01,-258.76 388.84,-261.72 398.63,-265.75 399.01,-258.76"/>
</g>
<!-- xfail&#45;list -->
<g id="node17" class="node">
<title>xfail&#45;list</title>
<ellipse fill="none" stroke="black" cx="146" cy="-170" rx="40.09" ry="18"/>
<text text-anchor="middle" x="146" y="-166.3" font-family="Times,serif" font-size="14.00">xfail&#45;list</text>
</g>
<!-- xfail&#45;list&#45;&gt;extract&#45;meta.sh -->
<g id="edge9" class="edge">
<title>xfail&#45;list&#45;&gt;extract&#45;meta.sh</title>
<path fill="none" stroke="black" d="M170.15,-155.41C179.37,-150.37 190.21,-144.63 202.91,-138.47"/>
<polygon fill="black" stroke="black" points="204.48,-141.6 212,-134.14 201.47,-135.28 204.48,-141.6"/>
</g>
<!-- bhyve or qemu&#45;&gt;extract&#45;meta.sh -->
<g id="edge16" class="edge">
<title>bhyve or qemu&#45;&gt;extract&#45;meta.sh</title>
<path fill="none" stroke="black" d="M309.43,-155.23C310.47,-145.26 311.9,-131.46 313.17,-119.29"/>
<polygon fill="black" stroke="black" points="316.67,-119.46 314.22,-109.15 309.7,-118.73 316.67,-119.46"/>
</g>
</g>
</svg>
