<?xml version="1.0" encoding="UTF-8" standalone="no"?>
<!DOCTYPE svg PUBLIC "-//W3C//DTD SVG 1.1//EN"
 "http://www.w3.org/Graphics/SVG/1.1/DTD/svg11.dtd">
<!-- Generated by graphviz version 2.44.1 (20200629.0846)
 -->
<!-- Title: FreeBSDCI Pages: 1 -->
<svg width="1862pt" height="616pt"
 viewBox="0.00 0.00 1862.00 616.00" xmlns="http://www.w3.org/2000/svg" xmlns:xlink="http://www.w3.org/1999/xlink">
<g id="graph0" class="graph" transform="scale(1 1) rotate(0) translate(4 612)">
<title>FreeBSDCI</title>
<polygon fill="white" stroke="transparent" points="-4,4 -4,-612 1858,-612 1858,4 -4,4"/>
<g id="clust4" class="cluster">
<title>cluster_tests</title>
<g id="a_clust4"><a xlink:href="https://github.com/freebsd/freebsd-ci/blob/master/scripts/test/run-tests.sh" xlink:title="run&#45;tests.sh">
<polygon fill="none" stroke="black" points="948,-65 948,-302 1156,-302 1156,-65 948,-65"/>
<text text-anchor="middle" x="1052" y="-290" font-family="Verdana" font-size="10.00">run&#45;tests.sh</text>
</a>
</g>
</g>
<g id="clust5" class="cluster">
<title>cluster_regtests</title>
<g id="a_clust5"><a xlink:href="https://github.com/freebsd/freebsd-ci/tree/master/scripts/test/subr" xlink:title="test/subr (regression tests scripts)">
<polygon fill="none" stroke="black" points="1044,-335 1044,-600 1846,-600 1846,-335 1044,-335"/>
<text text-anchor="middle" x="1445" y="-588" font-family="Verdana" font-size="10.00">test/subr (regression tests scripts)</text>
</a>
</g>
</g>
<g id="clust1" class="cluster">
<title>cluster_jobs</title>
<g id="a_clust1"><a xlink:href="https://ci.freebsd.org/" xlink:title="Jenkins jobs">
<polygon fill="none" stroke="black" points="571,-136 571,-600 937,-600 937,-136 571,-136"/>
<text text-anchor="middle" x="754" y="-588" font-family="Verdana" font-size="10.00">Jenkins jobs</text>
</a>
</g>
</g>
<g id="clust2" class="cluster">
<title>cluster_amd64test</title>
<g id="a_clust2"><a xlink:href="https://ci.freebsd.org/">
<polygon fill="none" stroke="black" points="579,-144 579,-387 929,-387 929,-144 579,-144"/>
</a>
</g>
</g>
<g id="clust3" class="cluster">
<title>cluster_build</title>
<g id="a_clust3"><a xlink:href="https://github.com/freebsd/freebsd-ci/blob/master/scripts/build" xlink:title="build scripts">
<polygon fill="none" stroke="black" points="8,-231 8,-510 336,-510 336,-231 8,-231"/>
<text text-anchor="middle" x="172" y="-498" font-family="Verdana" font-size="10.00">build scripts</text>
</a>
</g>
</g>
<g id="clust6" class="cluster">
<title>cluster_infra</title>
<polygon fill="none" stroke="black" points="344,-335 344,-406 539,-406 539,-335 344,-335"/>
<text text-anchor="middle" x="441.5" y="-394" font-family="Verdana" font-size="10.00">Infrastructure</text>
</g>
<!-- Artifact -->
<g id="node1" class="node">
<title>Artifact</title>
<g id="a_node1"><a xlink:href="https://artifact.ci.freebsd.org/" xlink:title="Artifact">
<path fill="none" stroke="black" d="M530.5,-375.73C530.5,-377.53 517.28,-379 501,-379 484.72,-379 471.5,-377.53 471.5,-375.73 471.5,-375.73 471.5,-346.27 471.5,-346.27 471.5,-344.47 484.72,-343 501,-343 517.28,-343 530.5,-344.47 530.5,-346.27 530.5,-346.27 530.5,-375.73 530.5,-375.73"/>
<path fill="none" stroke="black" d="M530.5,-375.73C530.5,-373.92 517.28,-372.45 501,-372.45 484.72,-372.45 471.5,-373.92 471.5,-375.73"/>
<text text-anchor="middle" x="501" y="-357.3" font-family="Times,serif" font-size="14.00">Artifact</text>
</a>
</g>
</g>
<!-- build&#45;test_image&#45;head.sh -->
<g id="node8" class="node">
<title>build&#45;test_image&#45;head.sh</title>
<g id="a_node8"><a xlink:href="https://github.com/freebsd/freebsd-ci/blob/master/scripts/build/build-test_image-head.sh" xlink:title="build&#45;test_image&#45;head.sh">
<polygon fill="none" stroke="black" points="327.51,-275 94.45,-275 34.49,-239 267.55,-239 327.51,-275"/>
<text text-anchor="middle" x="181" y="-253.3" font-family="Times,serif" font-size="14.00">build&#45;test_image&#45;head.sh</text>
</a>
</g>
</g>
<!-- Artifact&#45;&gt;build&#45;test_image&#45;head.sh -->
<g id="edge10" class="edge">
<title>Artifact&#45;&gt;build&#45;test_image&#45;head.sh</title>
<path fill="none" stroke="blue" d="M479.89,-343.44C474.63,-340.1 468.83,-337 463,-335 409.02,-316.51 389.02,-343.38 335,-325 323.45,-321.07 322.84,-315.61 312,-310 289.19,-298.18 263.05,-287.31 240.15,-278.6"/>
<polygon fill="blue" stroke="blue" points="241.15,-275.24 230.56,-275 238.69,-281.79 241.15,-275.24"/>
<text text-anchor="middle" x="392.5" y="-313.8" font-family="Times,serif" font-size="14.00" fill="blue">base and kernel pkgs</text>
</g>
<!-- create&#45;meta.sh -->
<g id="node9" class="node">
<title>create&#45;meta.sh</title>
<g id="a_node9"><a xlink:href="https://github.com/freebsd/freebsd-ci/blob/master/scripts/test/create-meta.sh" xlink:title="create&#45;meta.sh">
<polygon fill="none" stroke="black" points="1141.46,-275 995.97,-275 958.54,-239 1104.03,-239 1141.46,-275"/>
<text text-anchor="middle" x="1050" y="-253.3" font-family="Times,serif" font-size="14.00">create&#45;meta.sh</text>
</a>
</g>
</g>
<!-- Artifact&#45;&gt;create&#45;meta.sh -->
<g id="edge9" class="edge">
<title>Artifact&#45;&gt;create&#45;meta.sh</title>
<path fill="none" stroke="red" d="M530.71,-347.7C544.02,-342.79 560.05,-337.67 575,-335 655.1,-320.71 863.02,-348.21 941,-325 954.98,-320.84 968.95,-314.41 982.01,-307.14"/>
<polygon fill="red" stroke="red" points="983.99,-310.04 990.89,-302 980.48,-303.98 983.99,-310.04"/>
<text text-anchor="middle" x="1012" y="-313.8" font-family="Times,serif" font-size="14.00" fill="red">disk&#45;test.img</text>
</g>
<!-- Pkgs repository -->
<g id="node2" class="node">
<title>Pkgs repository</title>
<g id="a_node2"><a xlink:href="http://pkg.freebsd.org/" xlink:title="Pkgs repository">
<path fill="none" stroke="black" d="M453.5,-375.73C453.5,-377.53 430.87,-379 403,-379 375.13,-379 352.5,-377.53 352.5,-375.73 352.5,-375.73 352.5,-346.27 352.5,-346.27 352.5,-344.47 375.13,-343 403,-343 430.87,-343 453.5,-344.47 453.5,-346.27 453.5,-346.27 453.5,-375.73 453.5,-375.73"/>
<path fill="none" stroke="black" d="M453.5,-375.73C453.5,-373.92 430.87,-372.45 403,-372.45 375.13,-372.45 352.5,-373.92 352.5,-375.73"/>
<text text-anchor="middle" x="403" y="-357.3" font-family="Times,serif" font-size="14.00">Pkgs repository</text>
</a>
</g>
</g>
<!-- Pkgs repository&#45;&gt;build&#45;test_image&#45;head.sh -->
<g id="edge13" class="edge">
<title>Pkgs repository&#45;&gt;build&#45;test_image&#45;head.sh</title>
<path fill="none" stroke="green" d="M366.97,-343.47C358.3,-340.12 348.95,-337.01 340,-335 323.27,-331.24 198.18,-337.07 186,-325 175.76,-314.86 174.24,-298.91 175.41,-285.11"/>
<polygon fill="green" stroke="green" points="178.89,-285.49 176.72,-275.12 171.95,-284.57 178.89,-285.49"/>
<text text-anchor="middle" x="249" y="-313.8" font-family="Times,serif" font-size="14.00" fill="green">packages used for tests</text>
</g>
<!-- FreeBSD&#45;head&#45;amd64&#45;build -->
<g id="node3" class="node">
<title>FreeBSD&#45;head&#45;amd64&#45;build</title>
<g id="a_node3"><a xlink:href="https://github.com/freebsd/freebsd-ci/tree/master/jobs/FreeBSD-head-amd64-build" xlink:title="FreeBSD&#45;head&#45;amd64&#45;build">
<polygon fill="none" stroke="black" points="752.5,-573 593.5,-573 593.5,-577 581.5,-577 581.5,-537 752.5,-537 752.5,-573"/>
<polyline fill="none" stroke="black" points="581.5,-573 593.5,-573 "/>
<text text-anchor="middle" x="667" y="-551.3" font-family="Times,serif" font-size="14.00">FreeBSD&#45;head&#45;amd64&#45;build</text>
</a>
</g>
</g>
<!-- FreeBSD&#45;head&#45;amd64&#45;testvm -->
<g id="node4" class="node">
<title>FreeBSD&#45;head&#45;amd64&#45;testvm</title>
<g id="a_node4"><a xlink:href="https://github.com/freebsd/freebsd-ci/tree/master/jobs/FreeBSD-head-amd64-testvm" xlink:title="FreeBSD&#45;head&#45;amd64&#45;testvm">
<polygon fill="none" stroke="black" points="759,-483 591,-483 591,-487 579,-487 579,-447 759,-447 759,-483"/>
<polyline fill="none" stroke="black" points="579,-483 591,-483 "/>
<text text-anchor="middle" x="669" y="-461.3" font-family="Times,serif" font-size="14.00">FreeBSD&#45;head&#45;amd64&#45;testvm</text>
</a>
</g>
</g>
<!-- FreeBSD&#45;head&#45;amd64&#45;build&#45;&gt;FreeBSD&#45;head&#45;amd64&#45;testvm -->
<g id="edge4" class="edge">
<title>FreeBSD&#45;head&#45;amd64&#45;build&#45;&gt;FreeBSD&#45;head&#45;amd64&#45;testvm</title>
<path fill="none" stroke="black" d="M667.4,-536.61C667.68,-524.24 668.06,-507.37 668.38,-493.22"/>
<polygon fill="black" stroke="black" points="671.88,-493.13 668.61,-483.05 664.89,-492.97 671.88,-493.13"/>
</g>
<!-- build&#45;world&#45;kernel&#45;head.sh -->
<g id="node7" class="node">
<title>build&#45;world&#45;kernel&#45;head.sh</title>
<g id="a_node7"><a xlink:href="https://github.com/freebsd/freebsd-ci/blob/master/scripts/build/build-world-kernel-head.sh" xlink:title="build&#45;world&#45;kernel&#45;head.sh">
<polygon fill="none" stroke="black" points="328.06,-483 79.8,-483 15.94,-447 264.2,-447 328.06,-483"/>
<text text-anchor="middle" x="172" y="-461.3" font-family="Times,serif" font-size="14.00">build&#45;world&#45;kernel&#45;head.sh</text>
</a>
</g>
</g>
<!-- FreeBSD&#45;head&#45;amd64&#45;build&#45;&gt;build&#45;world&#45;kernel&#45;head.sh -->
<g id="edge1" class="edge">
<title>FreeBSD&#45;head&#45;amd64&#45;build&#45;&gt;build&#45;world&#45;kernel&#45;head.sh</title>
<path fill="none" stroke="black" d="M581.34,-538.77C497.2,-523.81 368.6,-500.95 278.04,-484.85"/>
<polygon fill="black" stroke="black" points="278.48,-481.38 268.02,-483.07 277.26,-488.27 278.48,-481.38"/>
</g>
<!-- FreeBSD&#45;head&#45;amd64&#45;test -->
<g id="node5" class="node">
<title>FreeBSD&#45;head&#45;amd64&#45;test</title>
<g id="a_node5"><a xlink:href="https://github.com/freebsd/freebsd-ci/tree/master/jobs/FreeBSD-head-amd64-test" xlink:title="FreeBSD&#45;head&#45;amd64&#45;test">
<polygon fill="none" stroke="black" points="749,-379 599,-379 599,-383 587,-383 587,-343 749,-343 749,-379"/>
<polyline fill="none" stroke="black" points="587,-379 599,-379 "/>
<text text-anchor="middle" x="668" y="-357.3" font-family="Times,serif" font-size="14.00">FreeBSD&#45;head&#45;amd64&#45;test</text>
</a>
</g>
</g>
<!-- FreeBSD&#45;head&#45;amd64&#45;testvm&#45;&gt;FreeBSD&#45;head&#45;amd64&#45;test -->
<g id="edge5" class="edge">
<title>FreeBSD&#45;head&#45;amd64&#45;testvm&#45;&gt;FreeBSD&#45;head&#45;amd64&#45;test</title>
<path fill="none" stroke="black" d="M668.83,-446.7C668.68,-430.92 668.44,-407.36 668.27,-389.09"/>
<polygon fill="black" stroke="black" points="671.77,-389.01 668.17,-379.05 664.77,-389.08 671.77,-389.01"/>
</g>
<!-- FreeBSD&#45;head&#45;amd64&#45;testvm&#45;&gt;build&#45;test_image&#45;head.sh -->
<g id="edge3" class="edge">
<title>FreeBSD&#45;head&#45;amd64&#45;testvm&#45;&gt;build&#45;test_image&#45;head.sh</title>
<path fill="none" stroke="black" d="M628.13,-446.94C609.58,-437.36 588.76,-423.72 575,-406 547.58,-370.7 579.05,-338.96 545,-310 510.88,-280.98 404.78,-268.15 315.87,-262.48"/>
<polygon fill="black" stroke="black" points="315.86,-258.97 305.67,-261.85 315.44,-265.96 315.86,-258.97"/>
</g>
<!-- FreeBSD&#45;head&#45;amd64&#45;test&#45;&gt;create&#45;meta.sh -->
<g id="edge2" class="edge">
<title>FreeBSD&#45;head&#45;amd64&#45;test&#45;&gt;create&#45;meta.sh</title>
<path fill="none" stroke="black" d="M721.33,-342.97C733.28,-339.77 745.98,-336.86 758,-335 773.27,-332.64 1024.18,-334.96 1036,-325 1040.34,-321.34 1043.55,-316.71 1045.9,-311.6"/>
<polygon fill="black" stroke="black" points="1049.26,-312.59 1049.25,-302 1042.65,-310.28 1049.26,-312.59"/>
</g>
<!-- meta/run.sh -->
<g id="node6" class="node">
<title>meta/run.sh</title>
<g id="a_node6"><a xlink:href="https://github.com/freebsd/freebsd-ci/blob/master/jobs/FreeBSD-head-amd64-test/meta/run.sh" xlink:title="meta/run.sh">
<polygon fill="none" stroke="black" points="921.38,-379 798.29,-379 766.62,-343 889.71,-343 921.38,-379"/>
<text text-anchor="middle" x="844" y="-357.3" font-family="Times,serif" font-size="14.00">meta/run.sh</text>
</a>
</g>
</g>
<!-- meta/run.sh&#45;&gt;create&#45;meta.sh -->
<g id="edge7" class="edge">
<title>meta/run.sh&#45;&gt;create&#45;meta.sh</title>
<path fill="none" stroke="blue" d="M900.16,-354.71C960.94,-348.4 1050.64,-337.17 1061,-325 1070.41,-313.95 1068.22,-298.03 1063.42,-284.49"/>
<polygon fill="blue" stroke="blue" points="1066.62,-283.07 1059.59,-275.14 1060.15,-285.72 1066.62,-283.07"/>
<text text-anchor="middle" x="1132" y="-313.8" font-family="Times,serif" font-size="14.00" fill="blue">list of test scripts to run</text>
</g>
<!-- build&#45;world&#45;kernel&#45;head.sh&#45;&gt;Artifact -->
<g id="edge6" class="edge">
<title>build&#45;world&#45;kernel&#45;head.sh&#45;&gt;Artifact</title>
<path fill="none" stroke="blue" d="M285.2,-458.72C341.75,-451.93 409.37,-437.25 463,-406 471.02,-401.33 478.19,-394.33 484.07,-387.28"/>
<polygon fill="blue" stroke="blue" points="487.03,-389.18 490.37,-379.12 481.49,-384.9 487.03,-389.18"/>
<text text-anchor="middle" x="498.5" y="-417.8" font-family="Times,serif" font-size="14.00" fill="blue">base and kernel pkgs</text>
</g>
<!-- build&#45;test_image&#45;head.sh&#45;&gt;Artifact -->
<g id="edge12" class="edge">
<title>build&#45;test_image&#45;head.sh&#45;&gt;Artifact</title>
<path fill="none" stroke="red" d="M316.81,-268.57C361.13,-276.04 409.35,-288.67 450,-310 461.84,-316.21 472.75,-326.06 481.42,-335.38"/>
<polygon fill="red" stroke="red" points="478.9,-337.81 488.14,-342.99 484.14,-333.18 478.9,-337.81"/>
<text text-anchor="middle" x="506" y="-313.8" font-family="Times,serif" font-size="14.00" fill="red">disk&#45;test.img</text>
</g>
<!-- bhyve or qemu -->
<g id="node18" class="node">
<title>bhyve or qemu</title>
<polygon fill="none" stroke="black" points="1123.57,-175.56 1044,-188 964.43,-175.56 964.51,-155.44 1123.49,-155.44 1123.57,-175.56"/>
<text text-anchor="middle" x="1044" y="-166.3" font-family="Times,serif" font-size="14.00">bhyve or qemu</text>
</g>
<!-- create&#45;meta.sh&#45;&gt;bhyve or qemu -->
<g id="edge14" class="edge">
<title>create&#45;meta.sh&#45;&gt;bhyve or qemu</title>
<path fill="none" stroke="peru" d="M1048.79,-238.8C1047.96,-227.09 1046.85,-211.34 1045.9,-197.97"/>
<polygon fill="peru" stroke="peru" points="1049.39,-197.61 1045.19,-187.89 1042.4,-198.11 1049.39,-197.61"/>
<text text-anchor="middle" x="1119" y="-209.8" font-family="Times,serif" font-size="14.00" fill="peru">disk&#45;test.img and meta.tar</text>
</g>
<!-- config&#45;head/testvm/* -->
<g id="node10" class="node">
<title>config&#45;head/testvm/*</title>
<g id="a_node10"><a xlink:href="https://github.com/freebsd/freebsd-ci/tree/master/scripts/build/config-head/testvm" xlink:title="config&#45;head/testvm/*">
<path fill="none" stroke="black" d="M226.5,-375.73C226.5,-377.53 197.14,-379 161,-379 124.86,-379 95.5,-377.53 95.5,-375.73 95.5,-375.73 95.5,-346.27 95.5,-346.27 95.5,-344.47 124.86,-343 161,-343 197.14,-343 226.5,-344.47 226.5,-346.27 226.5,-346.27 226.5,-375.73 226.5,-375.73"/>
<path fill="none" stroke="black" d="M226.5,-375.73C226.5,-373.92 197.14,-372.45 161,-372.45 124.86,-372.45 95.5,-373.92 95.5,-375.73"/>
<text text-anchor="middle" x="161" y="-357.3" font-family="Times,serif" font-size="14.00">config&#45;head/testvm/*</text>
</a>
</g>
</g>
<!-- config&#45;head/testvm/*&#45;&gt;build&#45;test_image&#45;head.sh -->
<g id="edge11" class="edge">
<title>config&#45;head/testvm/*&#45;&gt;build&#45;test_image&#45;head.sh</title>
<path fill="none" stroke="brown" d="M161.95,-342.76C162.68,-333.07 163.92,-320.79 166,-310 167.6,-301.7 169.93,-292.8 172.28,-284.76"/>
<polygon fill="brown" stroke="brown" points="175.64,-285.73 175.21,-275.14 168.94,-283.69 175.64,-285.73"/>
</g>
<!-- extract&#45;meta.sh -->
<g id="node11" class="node">
<title>extract&#45;meta.sh</title>
<g id="a_node11"><a xlink:href="https://github.com/freebsd/freebsd-ci/blob/master/scripts/test/extract-meta.sh" xlink:title="extract&#45;meta.sh">
<polygon fill="none" stroke="black" points="1148.49,-109 994.99,-109 955.51,-73 1109.01,-73 1148.49,-109"/>
<text text-anchor="middle" x="1052" y="-87.3" font-family="Times,serif" font-size="14.00">extract&#45;meta.sh</text>
</a>
</g>
</g>
<!-- test reports -->
<g id="node12" class="node">
<title>test reports</title>
<g id="a_node12"><a xlink:href="https://ci.freebsd.org/job/FreeBSD-head-amd64-test/lastCompletedBuild/testReport/" xlink:title="test reports">
<polygon fill="none" stroke="black" points="1084.5,-36 1013.5,-36 1013.5,0 1090.5,0 1090.5,-30 1084.5,-36"/>
<polyline fill="none" stroke="black" points="1084.5,-36 1084.5,-30 "/>
<polyline fill="none" stroke="black" points="1090.5,-30 1084.5,-30 "/>
<text text-anchor="middle" x="1052" y="-14.3" font-family="Times,serif" font-size="14.00">test reports</text>
</a>
</g>
</g>
<!-- extract&#45;meta.sh&#45;&gt;test reports -->
<g id="edge16" class="edge">
<title>extract&#45;meta.sh&#45;&gt;test reports</title>
<path fill="none" stroke="black" d="M1052,-65C1052,-58.88 1052,-52.29 1052,-46.07"/>
<polygon fill="black" stroke="black" points="1055.5,-46.03 1052,-36.03 1048.5,-46.03 1055.5,-46.03"/>
</g>
<!-- disable&#45;dtrace&#45;tests.sh -->
<g id="node13" class="node">
<title>disable&#45;dtrace&#45;tests.sh</title>
<g id="a_node13"><a xlink:href="https://github.com/freebsd/freebsd-ci/blob/master/scripts/test/subr/disable-dtrace-tests.sh" xlink:title="disable&#45;dtrace&#45;tests.sh">
<polygon fill="none" stroke="black" points="1837.61,-573 1629.84,-573 1576.39,-537 1784.16,-537 1837.61,-573"/>
<text text-anchor="middle" x="1707" y="-551.3" font-family="Times,serif" font-size="14.00">disable&#45;dtrace&#45;tests.sh</text>
</a>
</g>
</g>
<!-- disable&#45;zfs&#45;tests.sh -->
<g id="node14" class="node">
<title>disable&#45;zfs&#45;tests.sh</title>
<g id="a_node14"><a xlink:href="https://github.com/freebsd/freebsd-ci/blob/master/scripts/test/subr/disable-zfs-tests.sh" xlink:title="disable&#45;zfs&#45;tests.sh">
<polygon fill="none" stroke="black" points="1558.3,-573 1378.07,-573 1331.7,-537 1511.93,-537 1558.3,-573"/>
<text text-anchor="middle" x="1445" y="-551.3" font-family="Times,serif" font-size="14.00">disable&#45;zfs&#45;tests.sh</text>
</a>
</g>
</g>
<!-- disable&#45;notyet&#45;tests.sh -->
<g id="node15" class="node">
<title>disable&#45;notyet&#45;tests.sh</title>
<g id="a_node15"><a xlink:href="https://github.com/freebsd/freebsd-ci/blob/master/scripts/test/subr/disable-notyet-tests.sh" xlink:title="disable&#45;notyet&#45;tests.sh">
<polygon fill="none" stroke="black" points="1313.61,-573 1105.84,-573 1052.39,-537 1260.16,-537 1313.61,-573"/>
<text text-anchor="middle" x="1183" y="-551.3" font-family="Times,serif" font-size="14.00">disable&#45;notyet&#45;tests.sh</text>
</a>
</g>
</g>
<!-- run&#45;kyua.sh -->
<g id="node16" class="node">
<title>run&#45;kyua.sh</title>
<g id="a_node16"><a xlink:href="https://github.com/freebsd/freebsd-ci/blob/master/scripts/test/subr/run-kyua.sh" xlink:title="run&#45;kyua.sh">
<polygon fill="none" stroke="black" points="1305.38,-379 1182.29,-379 1150.62,-343 1273.71,-343 1305.38,-379"/>
<text text-anchor="middle" x="1228" y="-357.3" font-family="Times,serif" font-size="14.00">run&#45;kyua.sh</text>
</a>
</g>
</g>
<!-- run&#45;kyua.sh&#45;&gt;create&#45;meta.sh -->
<g id="edge17" class="edge">
<title>run&#45;kyua.sh&#45;&gt;create&#45;meta.sh</title>
<path fill="none" stroke="black" d="M1225.91,-335C1224,-326.13 1220.47,-316.7 1214,-310 1195.41,-290.77 1169.75,-278.62 1144.25,-270.97"/>
<polygon fill="black" stroke="black" points="1145.08,-267.56 1134.5,-268.25 1143.19,-274.31 1145.08,-267.56"/>
</g>
<!-- xfail&#45;list -->
<g id="node17" class="node">
<title>xfail&#45;list</title>
<ellipse fill="none" stroke="black" cx="881" cy="-170" rx="40.09" ry="18"/>
<text text-anchor="middle" x="881" y="-166.3" font-family="Times,serif" font-size="14.00">xfail&#45;list</text>
</g>
<!-- xfail&#45;list&#45;&gt;extract&#45;meta.sh -->
<g id="edge8" class="edge">
<title>xfail&#45;list&#45;&gt;extract&#45;meta.sh</title>
<path fill="none" stroke="black" d="M905.26,-155.6C914.68,-150.54 925.79,-144.75 938.74,-138.53"/>
<polygon fill="black" stroke="black" points="940.45,-141.59 948,-134.16 937.47,-135.26 940.45,-141.59"/>
</g>
<!-- bhyve or qemu&#45;&gt;extract&#45;meta.sh -->
<g id="edge15" class="edge">
<title>bhyve or qemu&#45;&gt;extract&#45;meta.sh</title>
<path fill="none" stroke="black" d="M1045.43,-155.23C1046.47,-145.26 1047.9,-131.46 1049.17,-119.29"/>
<polygon fill="black" stroke="black" points="1052.67,-119.46 1050.22,-109.15 1045.7,-118.73 1052.67,-119.46"/>
</g>
</g>
</svg>
