<?xml version="1.0" encoding="UTF-8" standalone="no"?>
<!DOCTYPE svg PUBLIC "-//W3C//DTD SVG 1.1//EN"
 "http://www.w3.org/Graphics/SVG/1.1/DTD/svg11.dtd">
<!-- Generated by graphviz version 2.44.1 (20200629.0846)
 -->
<!-- Title: FreeBSDCI Pages: 1 -->
<svg width="1387pt" height="730pt"
 viewBox="0.00 0.00 1387.00 730.00" xmlns="http://www.w3.org/2000/svg" xmlns:xlink="http://www.w3.org/1999/xlink">
<g id="graph0" class="graph" transform="scale(1 1) rotate(0) translate(4 726)">
<title>FreeBSDCI</title>
<polygon fill="white" stroke="transparent" points="-4,4 -4,-726 1383,-726 1383,4 -4,4"/>
<g id="clust4" class="cluster">
<title>cluster_tests</title>
<g id="a_clust4"><a xlink:href="https://github.com/freebsd/freebsd-ci/blob/master/scripts/test/run-tests.sh" xlink:title="run&#45;tests.sh">
<polygon fill="none" stroke="black" points="184,-8 184,-258 392,-258 392,-8 184,-8"/>
<text text-anchor="middle" x="288" y="-246" font-family="Verdana" font-size="10.00">run&#45;tests.sh</text>
</a>
</g>
</g>
<g id="clust1" class="cluster">
<title>cluster_jobs</title>
<g id="a_clust1"><a xlink:href="https://ci.freebsd.org/" xlink:title="Jenkins jobs">
<polygon fill="none" stroke="black" points="8,-275 8,-714 300,-714 300,-275 8,-275"/>
<text text-anchor="middle" x="154" y="-702" font-family="Verdana" font-size="10.00">Jenkins jobs</text>
</a>
</g>
</g>
<g id="clust2" class="cluster">
<title>cluster_amd64test</title>
<g id="a_clust2"><a xlink:href="https://ci.freebsd.org/">
<polygon fill="none" stroke="black" points="16,-283 16,-444 292,-444 292,-283 16,-283"/>
</a>
</g>
</g>
<g id="clust5" class="cluster">
<title>cluster_regtests</title>
<g id="a_clust5"><a xlink:href="https://github.com/freebsd/freebsd-ci/tree/master/scripts/test/subr" xlink:title="test/subr (regression tests scripts)">
<polygon fill="none" stroke="black" points="308,-283 308,-373 1282,-373 1282,-283 308,-283"/>
<text text-anchor="middle" x="795" y="-361" font-family="Verdana" font-size="10.00">test/subr (regression tests scripts)</text>
</a>
</g>
</g>
<g id="clust3" class="cluster">
<title>cluster_build</title>
<g id="a_clust3"><a xlink:href="https://github.com/freebsd/freebsd-ci/blob/master/scripts/build" xlink:title="build scripts">
<polygon fill="none" stroke="black" points="308,-392 308,-605 835,-605 835,-392 308,-392"/>
<text text-anchor="middle" x="571.5" y="-593" font-family="Verdana" font-size="10.00">build scripts</text>
</a>
</g>
</g>
<g id="clust6" class="cluster">
<title>cluster_infra</title>
<polygon fill="none" stroke="black" points="843,-392 843,-482 1038,-482 1038,-392 843,-392"/>
<text text-anchor="middle" x="940.5" y="-470" font-family="Verdana" font-size="10.00">Infrastructure</text>
</g>
<!-- Artifact -->
<g id="node1" class="node">
<title>Artifact</title>
<g id="a_node1"><a xlink:href="https://artifact.ci.freebsd.org/" xlink:title="Artifact">
<path fill="none" stroke="black" d="M1029.5,-432.73C1029.5,-434.53 1016.28,-436 1000,-436 983.72,-436 970.5,-434.53 970.5,-432.73 970.5,-432.73 970.5,-403.27 970.5,-403.27 970.5,-401.47 983.72,-400 1000,-400 1016.28,-400 1029.5,-401.47 1029.5,-403.27 1029.5,-403.27 1029.5,-432.73 1029.5,-432.73"/>
<path fill="none" stroke="black" d="M1029.5,-432.73C1029.5,-430.92 1016.28,-429.45 1000,-429.45 983.72,-429.45 970.5,-430.92 970.5,-432.73"/>
<text text-anchor="middle" x="1000" y="-414.3" font-family="Times,serif" font-size="14.00">Artifact</text>
</a>
</g>
</g>
<!-- build&#45;test_image&#45;head.sh -->
<g id="node9" class="node">
<title>build&#45;test_image&#45;head.sh</title>
<g id="a_node9"><a xlink:href="https://github.com/freebsd/freebsd-ci/blob/master/scripts/build/build-test_image-head.sh" xlink:title="build&#45;test_image&#45;head.sh">
<polygon fill="none" stroke="black" points="609.51,-436 376.45,-436 316.49,-400 549.55,-400 609.51,-436"/>
<text text-anchor="middle" x="463" y="-414.3" font-family="Times,serif" font-size="14.00">build&#45;test_image&#45;head.sh</text>
</a>
</g>
</g>
<!-- Artifact&#45;&gt;build&#45;test_image&#45;head.sh -->
<g id="edge11" class="edge">
<title>Artifact&#45;&gt;build&#45;test_image&#45;head.sh</title>
<path fill="none" stroke="blue" d="M994.66,-436.18C989.15,-451.35 978.93,-472.04 962,-482 912.67,-511.01 761.19,-493.83 704.5,-486 640.72,-477.19 570.08,-455.88 521.76,-439.45"/>
<polygon fill="blue" stroke="blue" points="522.7,-436.07 512.1,-436.13 520.42,-442.69 522.7,-436.07"/>
<text text-anchor="middle" x="762" y="-493.8" font-family="Times,serif" font-size="14.00" fill="blue">base and kernel pkgs</text>
</g>
<!-- create&#45;meta.sh -->
<g id="node10" class="node">
<title>create&#45;meta.sh</title>
<g id="a_node10"><a xlink:href="https://github.com/freebsd/freebsd-ci/blob/master/scripts/test/create-meta.sh" xlink:title="create&#45;meta.sh">
<polygon fill="none" stroke="black" points="379.46,-212 233.97,-212 196.54,-176 342.03,-176 379.46,-212"/>
<text text-anchor="middle" x="288" y="-190.3" font-family="Times,serif" font-size="14.00">create&#45;meta.sh</text>
</a>
</g>
</g>
<!-- Artifact&#45;&gt;create&#45;meta.sh -->
<g id="edge10" class="edge">
<title>Artifact&#45;&gt;create&#45;meta.sh</title>
<path fill="none" stroke="red" d="M1029.87,-417.08C1096.35,-416.56 1253.21,-411.22 1286,-373 1314.36,-339.94 1315.54,-307.01 1286,-275 1227.07,-211.16 651.48,-198.24 402.17,-195.64"/>
<polygon fill="red" stroke="red" points="402.03,-192.14 392,-195.54 401.96,-199.14 402.03,-192.14"/>
<text text-anchor="middle" x="1343" y="-305.3" font-family="Times,serif" font-size="14.00" fill="red">disk&#45;test.img</text>
</g>
<!-- config&#45;head/testvm/* -->
<g id="node2" class="node">
<title>config&#45;head/testvm/*</title>
<path fill="none" stroke="black" d="M496.5,-555.73C496.5,-557.53 467.14,-559 431,-559 394.86,-559 365.5,-557.53 365.5,-555.73 365.5,-555.73 365.5,-526.27 365.5,-526.27 365.5,-524.47 394.86,-523 431,-523 467.14,-523 496.5,-524.47 496.5,-526.27 496.5,-526.27 496.5,-555.73 496.5,-555.73"/>
<path fill="none" stroke="black" d="M496.5,-555.73C496.5,-553.92 467.14,-552.45 431,-552.45 394.86,-552.45 365.5,-553.92 365.5,-555.73"/>
<text text-anchor="middle" x="431" y="-537.3" font-family="Times,serif" font-size="14.00">config&#45;head/testvm/*</text>
</g>
<!-- config&#45;head/testvm/*&#45;&gt;build&#45;test_image&#45;head.sh -->
<g id="edge12" class="edge">
<title>config&#45;head/testvm/*&#45;&gt;build&#45;test_image&#45;head.sh</title>
<path fill="none" stroke="brown" d="M496.74,-524.45C499.86,-523.92 502.96,-523.43 506,-523 540.71,-518.11 796.93,-530.49 821,-505 853.97,-470.1 724.98,-446.54 612.75,-433.04"/>
<polygon fill="brown" stroke="brown" points="612.98,-429.54 602.64,-431.84 612.16,-436.49 612.98,-429.54"/>
</g>
<!-- Pkgs repository -->
<g id="node3" class="node">
<title>Pkgs repository</title>
<g id="a_node3"><a xlink:href="http://pkg.freebsd.org/" xlink:title="Pkgs repository">
<path fill="none" stroke="black" d="M952.5,-432.73C952.5,-434.53 929.87,-436 902,-436 874.13,-436 851.5,-434.53 851.5,-432.73 851.5,-432.73 851.5,-403.27 851.5,-403.27 851.5,-401.47 874.13,-400 902,-400 929.87,-400 952.5,-401.47 952.5,-403.27 952.5,-403.27 952.5,-432.73 952.5,-432.73"/>
<path fill="none" stroke="black" d="M952.5,-432.73C952.5,-430.92 929.87,-429.45 902,-429.45 874.13,-429.45 851.5,-430.92 851.5,-432.73"/>
<text text-anchor="middle" x="902" y="-414.3" font-family="Times,serif" font-size="14.00">Pkgs repository</text>
</a>
</g>
</g>
<!-- Pkgs repository&#45;&gt;build&#45;test_image&#45;head.sh -->
<g id="edge14" class="edge">
<title>Pkgs repository&#45;&gt;build&#45;test_image&#45;head.sh</title>
<path fill="none" stroke="pink" d="M851.49,-418C788.11,-418 677.16,-418 590.01,-418"/>
<polygon fill="pink" stroke="pink" points="589.78,-414.5 579.78,-418 589.78,-421.5 589.78,-414.5"/>
<text text-anchor="middle" x="730.63" y="-424.8" font-family="Times,serif" font-size="14.00" fill="pink">packages</text>
</g>
<!-- FreeBSD&#45;head&#45;amd64&#45;build -->
<g id="node4" class="node">
<title>FreeBSD&#45;head&#45;amd64&#45;build</title>
<g id="a_node4"><a xlink:href="https://github.com/freebsd/freebsd-ci/tree/master/jobs/FreeBSD-head-amd64-build" xlink:title="FreeBSD&#45;head&#45;amd64&#45;build">
<polygon fill="none" stroke="black" points="289.5,-668 130.5,-668 130.5,-672 118.5,-672 118.5,-632 289.5,-632 289.5,-668"/>
<polyline fill="none" stroke="black" points="118.5,-668 130.5,-668 "/>
<text text-anchor="middle" x="204" y="-646.3" font-family="Times,serif" font-size="14.00">FreeBSD&#45;head&#45;amd64&#45;build</text>
</a>
</g>
</g>
<!-- FreeBSD&#45;head&#45;amd64&#45;testvm -->
<g id="node5" class="node">
<title>FreeBSD&#45;head&#45;amd64&#45;testvm</title>
<g id="a_node5"><a xlink:href="https://github.com/freebsd/freebsd-ci/tree/master/jobs/FreeBSD-head-amd64-testvm" xlink:title="FreeBSD&#45;head&#45;amd64&#45;testvm">
<polygon fill="none" stroke="black" points="292,-559 124,-559 124,-563 112,-563 112,-523 292,-523 292,-559"/>
<polyline fill="none" stroke="black" points="112,-559 124,-559 "/>
<text text-anchor="middle" x="202" y="-537.3" font-family="Times,serif" font-size="14.00">FreeBSD&#45;head&#45;amd64&#45;testvm</text>
</a>
</g>
</g>
<!-- FreeBSD&#45;head&#45;amd64&#45;build&#45;&gt;FreeBSD&#45;head&#45;amd64&#45;testvm -->
<g id="edge5" class="edge">
<title>FreeBSD&#45;head&#45;amd64&#45;build&#45;&gt;FreeBSD&#45;head&#45;amd64&#45;testvm</title>
<path fill="none" stroke="black" d="M203.68,-631.81C203.36,-614.96 202.88,-589.02 202.51,-569.34"/>
<polygon fill="black" stroke="black" points="206.01,-569.08 202.32,-559.15 199.01,-569.21 206.01,-569.08"/>
</g>
<!-- build&#45;world&#45;kernel&#45;head.sh -->
<g id="node8" class="node">
<title>build&#45;world&#45;kernel&#45;head.sh</title>
<g id="a_node8"><a xlink:href="https://github.com/freebsd/freebsd-ci/blob/master/scripts/build/build-world-kernel-head.sh" xlink:title="build&#45;world&#45;kernel&#45;head.sh">
<polygon fill="none" stroke="black" points="827.06,-559 578.8,-559 514.94,-523 763.2,-523 827.06,-559"/>
<text text-anchor="middle" x="671" y="-537.3" font-family="Times,serif" font-size="14.00">build&#45;world&#45;kernel&#45;head.sh</text>
</a>
</g>
</g>
<!-- FreeBSD&#45;head&#45;amd64&#45;build&#45;&gt;build&#45;world&#45;kernel&#45;head.sh -->
<g id="edge1" class="edge">
<title>FreeBSD&#45;head&#45;amd64&#45;build&#45;&gt;build&#45;world&#45;kernel&#45;head.sh</title>
<path fill="none" stroke="black" d="M289.61,-641.6C350.63,-635.1 434.22,-623.69 506,-605 546.92,-594.35 591.63,-576.89 624.17,-563.05"/>
<polygon fill="black" stroke="black" points="625.63,-566.24 633.44,-559.07 622.87,-559.8 625.63,-566.24"/>
</g>
<!-- FreeBSD&#45;head&#45;amd64&#45;test -->
<g id="node6" class="node">
<title>FreeBSD&#45;head&#45;amd64&#45;test</title>
<g id="a_node6"><a xlink:href="https://github.com/freebsd/freebsd-ci/tree/master/jobs/FreeBSD-head-amd64-test" xlink:title="FreeBSD&#45;head&#45;amd64&#45;test">
<polygon fill="none" stroke="black" points="284,-436 134,-436 134,-440 122,-440 122,-400 284,-400 284,-436"/>
<polyline fill="none" stroke="black" points="122,-436 134,-436 "/>
<text text-anchor="middle" x="203" y="-414.3" font-family="Times,serif" font-size="14.00">FreeBSD&#45;head&#45;amd64&#45;test</text>
</a>
</g>
</g>
<!-- FreeBSD&#45;head&#45;amd64&#45;testvm&#45;&gt;FreeBSD&#45;head&#45;amd64&#45;test -->
<g id="edge6" class="edge">
<title>FreeBSD&#45;head&#45;amd64&#45;testvm&#45;&gt;FreeBSD&#45;head&#45;amd64&#45;test</title>
<path fill="none" stroke="black" d="M202.14,-522.92C202.31,-503.04 202.58,-469.92 202.77,-446.42"/>
<polygon fill="black" stroke="black" points="206.27,-446.41 202.86,-436.38 199.27,-446.36 206.27,-446.41"/>
</g>
<!-- FreeBSD&#45;head&#45;amd64&#45;testvm&#45;&gt;build&#45;test_image&#45;head.sh -->
<g id="edge4" class="edge">
<title>FreeBSD&#45;head&#45;amd64&#45;testvm&#45;&gt;build&#45;test_image&#45;head.sh</title>
<path fill="none" stroke="black" d="M238.84,-522.92C285.54,-501.27 366.05,-463.95 416.81,-440.41"/>
<polygon fill="black" stroke="black" points="418.32,-443.57 425.92,-436.19 415.38,-437.22 418.32,-443.57"/>
</g>
<!-- meta/run.sh -->
<g id="node7" class="node">
<title>meta/run.sh</title>
<g id="a_node7"><a xlink:href="https://github.com/freebsd/freebsd-ci/blob/master/jobs/FreeBSD-head-amd64-test/meta/run.sh" xlink:title="meta/run.sh">
<polygon fill="none" stroke="black" points="260.38,-327 137.29,-327 105.62,-291 228.71,-291 260.38,-327"/>
<text text-anchor="middle" x="183" y="-305.3" font-family="Times,serif" font-size="14.00">meta/run.sh</text>
</a>
</g>
</g>
<!-- FreeBSD&#45;head&#45;amd64&#45;test&#45;&gt;meta/run.sh -->
<g id="edge3" class="edge">
<title>FreeBSD&#45;head&#45;amd64&#45;test&#45;&gt;meta/run.sh</title>
<path fill="none" stroke="black" d="M199.79,-399.81C196.62,-382.88 191.74,-356.78 188.06,-337.07"/>
<polygon fill="black" stroke="black" points="191.48,-336.34 186.21,-327.15 184.6,-337.62 191.48,-336.34"/>
</g>
<!-- FreeBSD&#45;head&#45;amd64&#45;test&#45;&gt;create&#45;meta.sh -->
<g id="edge2" class="edge">
<title>FreeBSD&#45;head&#45;amd64&#45;test&#45;&gt;create&#45;meta.sh</title>
<path fill="none" stroke="black" d="M240.44,-399.96C251.39,-393.13 262.22,-384.19 269,-373 287.76,-342.03 293.38,-302.37 293.93,-268.36"/>
<polygon fill="black" stroke="black" points="297.43,-268 293.95,-258 290.43,-267.99 297.43,-268"/>
</g>
<!-- meta/run.sh&#45;&gt;create&#45;meta.sh -->
<g id="edge8" class="edge">
<title>meta/run.sh&#45;&gt;create&#45;meta.sh</title>
<path fill="none" stroke="black" d="M198.95,-290.84C216.52,-271.92 244.95,-241.33 264.95,-219.8"/>
<polygon fill="black" stroke="black" points="267.66,-222.03 271.9,-212.32 262.53,-217.27 267.66,-222.03"/>
</g>
<!-- build&#45;world&#45;kernel&#45;head.sh&#45;&gt;Artifact -->
<g id="edge7" class="edge">
<title>build&#45;world&#45;kernel&#45;head.sh&#45;&gt;Artifact</title>
<path fill="none" stroke="blue" d="M773.05,-528.5C844.29,-518.84 931.81,-503.21 962,-482 974.66,-473.11 983.85,-458.53 990.01,-445.63"/>
<polygon fill="blue" stroke="blue" points="993.33,-446.78 994.15,-436.22 986.92,-443.97 993.33,-446.78"/>
<text text-anchor="middle" x="1002.5" y="-493.8" font-family="Times,serif" font-size="14.00" fill="blue">base and kernel pkgs</text>
</g>
<!-- build&#45;test_image&#45;head.sh&#45;&gt;Artifact -->
<g id="edge13" class="edge">
<title>build&#45;test_image&#45;head.sh&#45;&gt;Artifact</title>
<path fill="none" stroke="red" d="M495.7,-436.09C527.96,-452.82 579.24,-476.49 627,-486 668.27,-494.22 915.21,-509.11 962,-482 975.68,-474.08 984.96,-459.12 990.92,-445.65"/>
<polygon fill="red" stroke="red" points="994.23,-446.81 994.7,-436.23 987.73,-444.21 994.23,-446.81"/>
<text text-anchor="middle" x="663" y="-493.8" font-family="Times,serif" font-size="14.00" fill="red">disk&#45;test.img</text>
</g>
<!-- bhyve or qemu -->
<g id="node13" class="node">
<title>bhyve or qemu</title>
<ellipse fill="none" stroke="black" cx="272" cy="-107" rx="64.19" ry="18"/>
<text text-anchor="middle" x="272" y="-103.3" font-family="Times,serif" font-size="14.00">bhyve or qemu</text>
</g>
<!-- create&#45;meta.sh&#45;&gt;bhyve or qemu -->
<g id="edge15" class="edge">
<title>create&#45;meta.sh&#45;&gt;bhyve or qemu</title>
<path fill="none" stroke="black" d="M284.76,-175.8C282.57,-164.16 279.63,-148.55 277.13,-135.24"/>
<polygon fill="black" stroke="black" points="280.52,-134.36 275.23,-125.18 273.64,-135.65 280.52,-134.36"/>
<text text-anchor="middle" x="352" y="-146.8" font-family="Times,serif" font-size="14.00">disk&#45;test.img and meta.tar</text>
</g>
<!-- extract&#45;meta.sh -->
<g id="node11" class="node">
<title>extract&#45;meta.sh</title>
<g id="a_node11"><a xlink:href="https://github.com/freebsd/freebsd-ci/blob/master/scripts/test/extract-meta.sh" xlink:title="extract&#45;meta.sh">
<polygon fill="none" stroke="black" points="384.49,-52 230.99,-52 191.51,-16 345.01,-16 384.49,-52"/>
<text text-anchor="middle" x="288" y="-30.3" font-family="Times,serif" font-size="14.00">extract&#45;meta.sh</text>
</a>
</g>
</g>
<!-- xfail&#45;list -->
<g id="node12" class="node">
<title>xfail&#45;list</title>
<ellipse fill="none" stroke="black" cx="64" cy="-418" rx="40.09" ry="18"/>
<text text-anchor="middle" x="64" y="-414.3" font-family="Times,serif" font-size="14.00">xfail&#45;list</text>
</g>
<!-- xfail&#45;list&#45;&gt;extract&#45;meta.sh -->
<g id="edge9" class="edge">
<title>xfail&#45;list&#45;&gt;extract&#45;meta.sh</title>
<path fill="none" stroke="black" d="M65.8,-399.97C67.88,-378.88 71,-341.83 71,-310 71,-310 71,-310 71,-106 71,-75.52 149.3,-56.04 211.83,-45.34"/>
<polygon fill="black" stroke="black" points="212.42,-48.79 221.71,-43.7 211.28,-41.89 212.42,-48.79"/>
</g>
<!-- bhyve or qemu&#45;&gt;extract&#45;meta.sh -->
<g id="edge16" class="edge">
<title>bhyve or qemu&#45;&gt;extract&#45;meta.sh</title>
<path fill="none" stroke="black" d="M275.87,-88.81C277.68,-80.79 279.88,-71.05 281.9,-62.07"/>
<polygon fill="black" stroke="black" points="285.38,-62.55 284.16,-52.03 278.55,-61.01 285.38,-62.55"/>
</g>
<!-- disable&#45;dtrace&#45;tests.sh -->
<g id="node14" class="node">
<title>disable&#45;dtrace&#45;tests.sh</title>
<g id="a_node14"><a xlink:href="https://github.com/freebsd/freebsd-ci/blob/master/scripts/test/subr/disable-dtrace-tests.sh" xlink:title="disable&#45;dtrace&#45;tests.sh">
<polygon fill="none" stroke="black" points="1273.61,-327 1065.84,-327 1012.39,-291 1220.16,-291 1273.61,-327"/>
<text text-anchor="middle" x="1143" y="-305.3" font-family="Times,serif" font-size="14.00">disable&#45;dtrace&#45;tests.sh</text>
</a>
</g>
</g>
<!-- disable&#45;zfs&#45;tests.sh -->
<g id="node15" class="node">
<title>disable&#45;zfs&#45;tests.sh</title>
<g id="a_node15"><a xlink:href="https://github.com/freebsd/freebsd-ci/blob/master/scripts/test/subr/disable-zfs-tests.sh" xlink:title="disable&#45;zfs&#45;tests.sh">
<polygon fill="none" stroke="black" points="994.3,-327 814.07,-327 767.7,-291 947.93,-291 994.3,-327"/>
<text text-anchor="middle" x="881" y="-305.3" font-family="Times,serif" font-size="14.00">disable&#45;zfs&#45;tests.sh</text>
</a>
</g>
</g>
<!-- disable&#45;notyet&#45;tests.sh -->
<g id="node16" class="node">
<title>disable&#45;notyet&#45;tests.sh</title>
<g id="a_node16"><a xlink:href="https://github.com/freebsd/freebsd-ci/blob/master/scripts/test/subr/disable-notyet-tests.sh" xlink:title="disable&#45;notyet&#45;tests.sh">
<polygon fill="none" stroke="black" points="749.61,-327 541.84,-327 488.39,-291 696.16,-291 749.61,-327"/>
<text text-anchor="middle" x="619" y="-305.3" font-family="Times,serif" font-size="14.00">disable&#45;notyet&#45;tests.sh</text>
</a>
</g>
</g>
<!-- run&#45;kyua.sh -->
<g id="node17" class="node">
<title>run&#45;kyua.sh</title>
<g id="a_node17"><a xlink:href="https://github.com/freebsd/freebsd-ci/blob/master/scripts/test/subr/run-kyua.sh" xlink:title="run&#45;kyua.sh">
<polygon fill="none" stroke="black" points="470.38,-327 347.29,-327 315.62,-291 438.71,-291 470.38,-327"/>
<text text-anchor="middle" x="393" y="-305.3" font-family="Times,serif" font-size="14.00">run&#45;kyua.sh</text>
</a>
</g>
</g>
<!-- run&#45;kyua.sh&#45;&gt;create&#45;meta.sh -->
<g id="edge17" class="edge">
<title>run&#45;kyua.sh&#45;&gt;create&#45;meta.sh</title>
<path fill="none" stroke="black" d="M369.77,-283C352.3,-264.2 328.47,-238.56 311.05,-219.8"/>
<polygon fill="black" stroke="black" points="313.47,-217.27 304.1,-212.32 308.34,-222.03 313.47,-217.27"/>
</g>
</g>
</svg>
